<svg width="59" height="44" viewBox="0 0 59 44" fill="none" xmlns="http://www.w3.org/2000/svg">
<path d="M49.9598 3.8253C46.2728 2.16252 42.3207 0.933501 38.1878 0.234648C38.151 0.227583 38.1129 0.232136 38.0788 0.247679C38.0447 0.263222 38.0162 0.288986 37.9974 0.321403C37.4914 1.21063 36.9275 2.36976 36.5322 3.2855C32.149 2.6306 27.6927 2.6306 23.3095 3.2855C22.8693 2.27062 22.3729 1.28106 21.8226 0.321403C21.8039 0.288587 21.7757 0.262241 21.7417 0.245879C21.7077 0.229517 21.6695 0.223918 21.6322 0.229829C17.5018 0.928681 13.5496 2.1577 9.86017 3.82289C9.82843 3.83621 9.80152 3.85891 9.78306 3.88796C2.28365 14.913 0.228057 25.6657 1.23778 36.2834C1.24059 36.3094 1.24866 36.3346 1.2615 36.3573C1.27435 36.3801 1.29169 36.4001 1.31248 36.4159C5.68969 39.6028 10.5719 42.0304 15.7546 43.5972C15.7908 43.6084 15.8294 43.6083 15.8655 43.5972C15.9016 43.586 15.9335 43.5642 15.9571 43.5346C17.0723 42.0431 18.0606 40.4607 18.9115 38.8041C18.9233 38.7814 18.9301 38.7565 18.9315 38.731C18.9328 38.7055 18.9287 38.68 18.9193 38.6562C18.9099 38.6325 18.8956 38.611 18.8772 38.5933C18.8588 38.5755 18.8368 38.562 18.8127 38.5535C17.256 37.9672 15.7476 37.2598 14.3015 36.4376C14.2755 36.4228 14.2536 36.4017 14.2378 36.3764C14.2219 36.351 14.2126 36.3221 14.2107 36.2922C14.2088 36.2623 14.2144 36.2325 14.2268 36.2053C14.2393 36.1781 14.2583 36.1544 14.2822 36.1364C14.5859 35.9123 14.8895 35.6785 15.1787 35.4448C15.2047 35.4237 15.2361 35.4104 15.2693 35.4061C15.3024 35.4019 15.3362 35.4069 15.3666 35.4207C24.8301 39.6716 35.0791 39.6716 44.4317 35.4207C44.4623 35.4061 44.4963 35.4004 44.53 35.4042C44.5636 35.408 44.5955 35.4213 44.6221 35.4424C44.9112 35.6785 45.2125 35.9123 45.5185 36.1364C45.5426 36.154 45.562 36.1774 45.5749 36.2044C45.5877 36.2313 45.5937 36.261 45.5923 36.2909C45.5909 36.3207 45.582 36.3498 45.5667 36.3754C45.5513 36.401 45.5298 36.4224 45.5041 36.4376C44.063 37.2666 42.5641 37.9679 40.9904 38.551C40.9663 38.5598 40.9443 38.5736 40.9259 38.5916C40.9075 38.6096 40.8931 38.6312 40.8838 38.6552C40.8744 38.6791 40.8703 38.7048 40.8716 38.7305C40.873 38.7562 40.8798 38.7812 40.8916 38.8041C41.7592 40.4596 42.752 42.0357 43.8437 43.5322C43.8664 43.5629 43.898 43.5858 43.9342 43.5979C43.9705 43.61 44.0095 43.6106 44.0461 43.5997C49.2377 42.0372 54.1279 39.6084 58.5099 36.4159C58.5313 36.401 58.5493 36.3816 58.5626 36.3592C58.5759 36.3368 58.5842 36.3117 58.5871 36.2858C59.792 24.0101 56.5676 13.3442 50.0346 3.89278C50.0185 3.86207 49.992 3.83812 49.9598 3.8253ZM20.3261 29.8178C17.4777 29.8178 15.1281 27.2417 15.1281 24.0824C15.1281 20.9207 17.4319 18.347 20.3261 18.347C23.242 18.347 25.5699 20.9424 25.5241 24.0824C25.5241 27.2441 23.2203 29.8178 20.3261 29.8178V29.8178ZM39.5445 29.8178C36.6937 29.8178 34.3465 27.2417 34.3465 24.0824C34.3465 20.9207 36.6479 18.347 39.5445 18.347C42.4604 18.347 44.7883 20.9424 44.7426 24.0824C44.7426 27.2441 42.4628 29.8178 39.5445 29.8178V29.8178Z" fill="url(#paint0_linear_41_550)" fill-opacity="0.5"/>
<defs>
<linearGradient id="paint0_linear_41_550" x1="0.998047" y1="18.3929" x2="10.3972" y2="50.9083" gradientUnits="userSpaceOnUse">
<stop stop-color="#C1F84F"/>
<stop offset="1" stop-color="#5CF0DE"/>
</linearGradient>
</defs>
</svg>
