<svg width="55" height="45" viewBox="0 0 55 45" fill="none" xmlns="http://www.w3.org/2000/svg">
<path d="M54.7177 5.27638C52.7055 6.16802 50.5439 6.77048 48.2714 7.04279C50.6162 5.63977 52.3704 3.43157 53.2068 0.830233C51.0038 2.13875 48.5928 3.0598 46.0785 3.55335C44.3877 1.74806 42.1482 0.551478 39.7077 0.149392C37.2671 -0.252695 34.7621 0.162206 32.5816 1.32968C30.401 2.49715 28.6669 4.35188 27.6484 6.6059C26.63 8.85992 26.3842 11.3871 26.9492 13.7952C22.4854 13.571 18.1187 12.4108 14.1323 10.3898C10.1459 8.36883 6.62908 5.53221 3.80995 2.06407C2.84602 3.72686 2.29175 5.65472 2.29175 7.70791C2.29068 9.55624 2.74585 11.3763 3.61687 13.0065C4.4879 14.6367 5.74785 16.0268 7.28493 17.0532C5.50232 16.9965 3.75904 16.5149 2.20018 15.6483V15.7929C2.2 18.3853 3.09672 20.8978 4.73818 22.9043C6.37964 24.9108 8.66474 26.2876 11.2057 26.801C9.55207 27.2486 7.81832 27.3145 6.13544 26.9938C6.85236 29.2244 8.24886 31.175 10.1294 32.5724C12.01 33.9699 14.2805 34.7443 16.623 34.7872C12.6464 37.909 7.7353 39.6023 2.67974 39.5949C1.7842 39.5951 0.889413 39.5428 0 39.4382C5.13169 42.7377 11.1053 44.4888 17.2062 44.482C37.8585 44.482 49.1486 27.377 49.1486 12.542C49.1486 12.0601 49.1366 11.5733 49.1149 11.0913C51.3109 9.50317 53.2066 7.53656 54.7129 5.28361L54.7177 5.27638V5.27638Z" fill="url(#paint0_linear_41_549)" fill-opacity="0.5"/>
<defs>
<linearGradient id="paint0_linear_41_549" x1="-6.09987e-08" y1="18.6268" x2="10.3074" y2="51.525" gradientUnits="userSpaceOnUse">
<stop stop-color="#C1F84F"/>
<stop offset="1" stop-color="#5CF0DE"/>
</linearGradient>
</defs>
</svg>
